<?xml version="1.0" standalone="no"?>
<!DOCTYPE svg PUBLIC "-//W3C//DTD SVG 20010904//EN"
 "http://www.w3.org/TR/2001/REC-SVG-20010904/DTD/svg10.dtd">
<svg version="1.0" xmlns="http://www.w3.org/2000/svg"
 width="500.000000pt" height="500.000000pt" viewBox="0 0 500.000000 500.000000"
 preserveAspectRatio="xMidYMid meet">

<g transform="translate(0.000000,500.000000) scale(0.100000,-0.100000)"
fill="#000000" stroke="none">
<path d="M2335 3784 c-136 -27 -127 -21 -110 -80 2 -7 25 -7 77 2 100 18 287
17 394 -1 259 -45 493 -171 679 -366 212 -222 323 -493 331 -809 l3 -135 30
-3 c41 -4 46 19 38 172 -11 199 -61 383 -151 552 -184 345 -525 591 -912 659
-79 14 -325 19 -379 9z"/>
<path d="M2301 3649 c-30 -5 -56 -11 -58 -13 -2 -1 0 -17 3 -35 l7 -32 51 8
c99 16 354 9 436 -11 137 -34 272 -95 378 -170 l42 -30 18 25 c9 13 17 28 17
32 0 17 -187 126 -268 158 -155 59 -217 71 -402 75 -93 1 -194 -1 -224 -7z"/>
<path d="M1790 3581 c-208 -137 -373 -334 -472 -563 -43 -100 -84 -245 -90
-318 -3 -44 -2 -45 30 -48 17 -2 32 -1 32 1 0 3 7 42 16 87 42 226 153 437
319 609 73 76 230 201 267 213 9 3 9 12 -1 36 -7 18 -16 32 -20 32 -4 0 -40
-22 -81 -49z"/>
<path d="M2345 3523 c-224 -35 -470 -167 -608 -326 -182 -210 -261 -419 -261
-687 0 -242 64 -432 210 -626 127 -168 338 -309 550 -365 112 -30 328 -37 447
-15 429 81 750 410 822 846 74 437 -157 878 -560 1075 -155 76 -245 97 -425
101 -80 1 -158 0 -175 -3z m654 -684 l34 -20 -33 -34 c-26 -27 -37 -32 -51
-25 -47 26 -115 -4 -107 -46 4 -22 36 -32 106 -33 45 -1 58 -6 83 -30 49 -49
36 -117 -35 -179 -58 -50 -132 -64 -192 -36 -30 14 -63 51 -52 58 2 1 19 14
39 29 36 26 37 26 54 7 24 -27 58 -25 91 3 41 36 27 53 -48 60 -90 8 -116 21
-134 62 -28 67 10 145 88 184 55 27 113 27 157 0z m-306 -121 c4 -46 9 -138
13 -205 l7 -122 -29 -6 c-16 -4 -36 -9 -45 -11 -15 -4 -18 10 -24 113 -3 65
-8 123 -9 128 -2 6 -20 -22 -42 -62 -34 -62 -43 -72 -73 -78 -31 -6 -39 -2
-83 42 l-50 48 7 -127 7 -126 -43 -9 c-24 -5 -45 -9 -46 -8 -1 0 -7 70 -12
155 -6 85 -13 178 -16 206 l-5 51 46 10 45 10 66 -73 c37 -41 70 -74 74 -74 4
0 33 47 63 104 57 106 62 111 122 115 19 1 22 -6 27 -81z m-619 -160 c4 -57 9
-130 12 -164 l6 -61 76 18 c42 10 77 17 78 16 8 -11 13 -77 6 -81 -13 -8 -242
-59 -247 -55 -2 2 -10 95 -17 207 l-13 203 30 8 c63 19 62 20 69 -91z"/>
<path d="M1527 3138 c-150 -234 -211 -506 -176 -781 13 -94 19 -104 65 -93 19
5 24 11 20 23 -4 9 -12 60 -18 115 -26 218 30 466 151 667 l49 81 -29 21 -29
20 -33 -53z"/>
<path d="M3569 2754 c-14 -4 -15 -11 -6 -47 6 -23 11 -114 10 -202 0 -140 -3
-173 -26 -260 -31 -119 -115 -293 -185 -385 -63 -84 -197 -209 -273 -256 -32
-20 -59 -42 -59 -48 0 -6 8 -21 18 -33 l17 -22 81 54 c326 218 521 609 500
1004 -9 192 -17 211 -77 195z"/>
<path d="M1273 2233 c-13 -2 -23 -10 -23 -16 0 -32 46 -171 81 -246 180 -386
535 -655 954 -727 152 -26 375 -16 525 23 148 39 248 81 360 151 122 78 210
152 292 247 l69 80 -26 23 -26 22 -106 -110 c-230 -240 -499 -365 -816 -377
-165 -7 -285 7 -417 49 -190 61 -337 147 -477 280 -154 148 -250 299 -317 499
-20 57 -39 104 -43 105 -4 1 -18 -1 -30 -3z"/>
<path d="M1523 1948 c-13 -6 -23 -14 -23 -18 0 -21 95 -145 170 -223 81 -85
210 -181 309 -232 73 -36 212 -83 303 -100 99 -19 305 -21 401 -5 l68 12 -7
32 c-3 17 -8 32 -9 34 -1 2 -33 -2 -70 -9 -111 -19 -341 -6 -454 25 -244 68
-471 230 -610 435 -45 65 -44 65 -78 49z"/>
</g>
</svg>
